<mxfile host="app.diagrams.net" modified="2022-09-27T06:59:14.307Z" agent="5.0 (Windows NT 10.0; Win64; x64) AppleWebKit/537.36 (KHTML, like Gecko) Chrome/105.0.0.0 Safari/537.36 Edg/105.0.1343.50" etag="BqIPYc8XeADnLzX6b1tZ" version="20.3.6" type="github">
  <diagram id="ZjyGuNeCI29jCtGGfNnS" name="第 1 页">
    <mxGraphModel dx="781" dy="468" grid="1" gridSize="10" guides="1" tooltips="1" connect="1" arrows="1" fold="1" page="1" pageScale="1" pageWidth="827" pageHeight="1169" math="0" shadow="0">
      <root>
        <mxCell id="0" />
        <mxCell id="1" parent="0" />
        <mxCell id="hN0UKFsLx4uLQ49cNi8M-2" value="122.161" style="rounded=1;whiteSpace=wrap;html=1;" vertex="1" parent="1">
          <mxGeometry x="150" y="220" width="120" height="60" as="geometry" />
        </mxCell>
        <mxCell id="hN0UKFsLx4uLQ49cNi8M-3" value="122.62" style="rounded=1;whiteSpace=wrap;html=1;" vertex="1" parent="1">
          <mxGeometry x="150" y="40" width="120" height="60" as="geometry" />
        </mxCell>
        <mxCell id="hN0UKFsLx4uLQ49cNi8M-4" value="122.173" style="rounded=1;whiteSpace=wrap;html=1;" vertex="1" parent="1">
          <mxGeometry x="150" y="370" width="120" height="60" as="geometry" />
        </mxCell>
        <mxCell id="hN0UKFsLx4uLQ49cNi8M-5" value="" style="rounded=0;whiteSpace=wrap;html=1;" vertex="1" parent="1">
          <mxGeometry x="60" y="150" width="340" height="35" as="geometry" />
        </mxCell>
        <mxCell id="hN0UKFsLx4uLQ49cNi8M-6" value="" style="rounded=0;whiteSpace=wrap;html=1;" vertex="1" parent="1">
          <mxGeometry x="40" y="300" width="340" height="35" as="geometry" />
        </mxCell>
        <mxCell id="hN0UKFsLx4uLQ49cNi8M-7" value="" style="shape=sumEllipse;perimeter=ellipsePerimeter;whiteSpace=wrap;html=1;backgroundOutline=1;" vertex="1" parent="1">
          <mxGeometry x="180" y="208" width="10" height="12" as="geometry" />
        </mxCell>
        <mxCell id="hN0UKFsLx4uLQ49cNi8M-10" value="" style="shape=sumEllipse;perimeter=ellipsePerimeter;whiteSpace=wrap;html=1;backgroundOutline=1;" vertex="1" parent="1">
          <mxGeometry x="200" y="208" width="10" height="12" as="geometry" />
        </mxCell>
        <mxCell id="hN0UKFsLx4uLQ49cNi8M-12" value="" style="shape=sumEllipse;perimeter=ellipsePerimeter;whiteSpace=wrap;html=1;backgroundOutline=1;" vertex="1" parent="1">
          <mxGeometry x="220" y="208" width="10" height="12" as="geometry" />
        </mxCell>
        <mxCell id="hN0UKFsLx4uLQ49cNi8M-17" value="" style="shape=sumEllipse;perimeter=ellipsePerimeter;whiteSpace=wrap;html=1;backgroundOutline=1;" vertex="1" parent="1">
          <mxGeometry x="240" y="208" width="10" height="12" as="geometry" />
        </mxCell>
        <mxCell id="hN0UKFsLx4uLQ49cNi8M-18" value="" style="shape=sumEllipse;perimeter=ellipsePerimeter;whiteSpace=wrap;html=1;backgroundOutline=1;" vertex="1" parent="1">
          <mxGeometry x="350" y="208" width="10" height="12" as="geometry" />
        </mxCell>
        <mxCell id="hN0UKFsLx4uLQ49cNi8M-19" value="" style="shape=sumEllipse;perimeter=ellipsePerimeter;whiteSpace=wrap;html=1;backgroundOutline=1;" vertex="1" parent="1">
          <mxGeometry x="360" y="218" width="10" height="12" as="geometry" />
        </mxCell>
        <mxCell id="hN0UKFsLx4uLQ49cNi8M-20" value="" style="shape=sumEllipse;perimeter=ellipsePerimeter;whiteSpace=wrap;html=1;backgroundOutline=1;" vertex="1" parent="1">
          <mxGeometry x="370" y="228" width="10" height="12" as="geometry" />
        </mxCell>
        <mxCell id="hN0UKFsLx4uLQ49cNi8M-21" value="" style="shape=sumEllipse;perimeter=ellipsePerimeter;whiteSpace=wrap;html=1;backgroundOutline=1;" vertex="1" parent="1">
          <mxGeometry x="380" y="238" width="10" height="12" as="geometry" />
        </mxCell>
      </root>
    </mxGraphModel>
  </diagram>
</mxfile>
